<svg width="16" height="13" viewBox="0 0 16 13" fill="none" xmlns="http://www.w3.org/2000/svg">
<path d="M5.0399 9.00017L3.2879 5.82017H2.7959V9.00017H0.743896V0.576172H4.1879C4.8519 0.576172 5.4159 0.692171 5.8799 0.924171C6.3519 1.15617 6.7039 1.47617 6.9359 1.88417C7.1679 2.28417 7.2839 2.73217 7.2839 3.22817C7.2839 3.78817 7.1239 4.28817 6.8039 4.72817C6.4919 5.16817 6.0279 5.48017 5.4119 5.66417L7.3559 9.00017H5.0399ZM2.7959 4.36817H4.0679C4.4439 4.36817 4.7239 4.27617 4.9079 4.09217C5.0999 3.90817 5.1959 3.64817 5.1959 3.31217C5.1959 2.99217 5.0999 2.74017 4.9079 2.55617C4.7239 2.37217 4.4439 2.28017 4.0679 2.28017H2.7959V4.36817ZM10.624 3.25217C10.824 2.94017 11.1 2.68817 11.452 2.49617C11.804 2.30417 12.216 2.20817 12.688 2.20817C13.24 2.20817 13.74 2.34817 14.188 2.62817C14.636 2.90817 14.988 3.30817 15.244 3.82817C15.508 4.34817 15.64 4.95217 15.64 5.64017C15.64 6.32817 15.508 6.93617 15.244 7.46417C14.988 7.98417 14.636 8.38817 14.188 8.67617C13.74 8.95617 13.24 9.09617 12.688 9.09617C12.224 9.09617 11.812 9.00017 11.452 8.80817C11.1 8.61617 10.824 8.36817 10.624 8.06417V12.1922H8.572V2.30417H10.624V3.25217ZM13.552 5.64017C13.552 5.12817 13.408 4.72817 13.12 4.44017C12.84 4.14417 12.492 3.99617 12.076 3.99617C11.668 3.99617 11.32 4.14417 11.032 4.44017C10.752 4.73617 10.612 5.14017 10.612 5.65217C10.612 6.16417 10.752 6.56817 11.032 6.86417C11.32 7.16017 11.668 7.30817 12.076 7.30817C12.484 7.30817 12.832 7.16017 13.12 6.86417C13.408 6.56017 13.552 6.15217 13.552 5.64017Z" fill="black"/>
</svg>
